REM DIRINDEX 1\2\4,1\2\5,1\2\6,1\3\7,1\3\8,1\3\9,1\3\10
REM DIRNAME cjc057,folder01,folder02,folder03,folder04,folder05,folder06,folder07,folder08,folder09
TITLE ""
FILE "b_092.mp3" MP3
  TRACK 01 AUDIO
    TITLE "0:"
    INDEX 01 00:00:00
  TRACK 02 AUDIO
    TITLE "7:cjc057_06557"
    INDEX 01 00:00:15
  TRACK 03 AUDIO
    TITLE "0:"
    INDEX 01 00:01:32
  TRACK 04 AUDIO
    TITLE "8:cjc057_06558"
    INDEX 01 00:01:64
  TRACK 05 AUDIO
    TITLE "0:"
    INDEX 01 00:03:27
  TRACK 06 AUDIO
    TITLE "9:cjc057_06559"
    INDEX 01 00:03:66
  TRACK 07 AUDIO
    TITLE "0:"
    INDEX 01 00:06:33
  TRACK 08 AUDIO
    TITLE "7:cjc057_06560"
    INDEX 01 00:07:39
  TRACK 09 AUDIO
    TITLE "0:"
    INDEX 01 00:08:56
  TRACK 10 AUDIO
    TITLE "8:cjc057_06561"
    INDEX 01 00:09:10
  TRACK 11 AUDIO
    TITLE "0:"
    INDEX 01 00:10:51
  TRACK 12 AUDIO
    TITLE "9:cjc057_06562"
    INDEX 01 00:11:19
  TRACK 13 AUDIO
    TITLE "0:"
    INDEX 01 00:13:69
  TRACK 14 AUDIO
    TITLE "7:cjc057_06563"
    INDEX 01 00:15:01
  TRACK 15 AUDIO
    TITLE "0:"
    INDEX 01 00:16:20
  TRACK 16 AUDIO
    TITLE "8:cjc057_06564"
    INDEX 01 00:16:51
  TRACK 17 AUDIO
    TITLE "0:"
    INDEX 01 00:18:05
  TRACK 18 AUDIO
    TITLE "9:cjc057_06565"
    INDEX 01 00:18:48
  TRACK 19 AUDIO
    TITLE "0:"
    INDEX 01 00:21:43
  TRACK 20 AUDIO
    TITLE "7:cjc057_06566"
    INDEX 01 00:22:48
  TRACK 21 AUDIO
    TITLE "0:"
    INDEX 01 00:24:10
  TRACK 22 AUDIO
    TITLE "8:cjc057_06567"
    INDEX 01 00:24:39
  TRACK 23 AUDIO
    TITLE "0:"
    INDEX 01 00:26:03
  TRACK 24 AUDIO
    TITLE "9:cjc057_06568"
    INDEX 01 00:26:50
  TRACK 25 AUDIO
    TITLE "0:"
    INDEX 01 00:29:54
  TRACK 26 AUDIO
    TITLE "7:cjc057_06569"
    INDEX 01 00:30:55
  TRACK 27 AUDIO
    TITLE "0:"
    INDEX 01 00:32:11
  TRACK 28 AUDIO
    TITLE "8:cjc057_06570"
    INDEX 01 00:32:39
  TRACK 29 AUDIO
    TITLE "0:"
    INDEX 01 00:33:73
  TRACK 30 AUDIO
    TITLE "9:cjc057_06571"
    INDEX 01 00:34:38
  TRACK 31 AUDIO
    TITLE "0:"
    INDEX 01 00:37:67
  TRACK 32 AUDIO
    TITLE "7:cjc057_06572"
    INDEX 01 00:38:71
  TRACK 33 AUDIO
    TITLE "0:"
    INDEX 01 00:40:19
  TRACK 34 AUDIO
    TITLE "8:cjc057_06573"
    INDEX 01 00:40:52
  TRACK 35 AUDIO
    TITLE "0:"
    INDEX 01 00:42:41
  TRACK 36 AUDIO
    TITLE "9:cjc057_06574"
    INDEX 01 00:43:09
  TRACK 37 AUDIO
    TITLE "0:"
    INDEX 01 00:46:27
  TRACK 38 AUDIO
    TITLE "7:cjc057_06575"
    INDEX 01 00:47:32
  TRACK 39 AUDIO
    TITLE "0:"
    INDEX 01 00:48:71
  TRACK 40 AUDIO
    TITLE "8:cjc057_06576"
    INDEX 01 00:49:25
  TRACK 41 AUDIO
    TITLE "0:"
    INDEX 01 00:50:66
  TRACK 42 AUDIO
    TITLE "9:cjc057_06577"
    INDEX 01 00:51:34
  TRACK 43 AUDIO
    TITLE "0:"
    INDEX 01 00:55:42
  TRACK 44 AUDIO
    TITLE "7:cjc057_06578"
    INDEX 01 00:56:45
  TRACK 45 AUDIO
    TITLE "0:"
    INDEX 01 00:57:68
  TRACK 46 AUDIO
    TITLE "8:cjc057_06579"
    INDEX 01 00:58:24
  TRACK 47 AUDIO
    TITLE "0:"
    INDEX 01 00:59:57
  TRACK 48 AUDIO
    TITLE "9:cjc057_06580"
    INDEX 01 01:00:23
  TRACK 49 AUDIO
    TITLE "0:"
    INDEX 01 01:03:53
  TRACK 50 AUDIO
    TITLE "7:cjc057_06581"
    INDEX 01 01:04:58
  TRACK 51 AUDIO
    TITLE "0:"
    INDEX 01 01:06:14
  TRACK 52 AUDIO
    TITLE "8:cjc057_06582"
    INDEX 01 01:06:45
  TRACK 53 AUDIO
    TITLE "0:"
    INDEX 01 01:09:20
  TRACK 54 AUDIO
    TITLE "9:cjc057_06583"
    INDEX 01 01:09:59
  TRACK 55 AUDIO
    TITLE "0:"
    INDEX 01 01:12:64
  TRACK 56 AUDIO
    TITLE "7:cjc057_06584"
    INDEX 01 01:13:71
  TRACK 57 AUDIO
    TITLE "0:"
    INDEX 01 01:15:31
  TRACK 58 AUDIO
    TITLE "8:cjc057_06585"
    INDEX 01 01:15:60
  TRACK 59 AUDIO
    TITLE "0:"
    INDEX 01 01:17:22
  TRACK 60 AUDIO
    TITLE "9:cjc057_06586"
    INDEX 01 01:17:67
  TRACK 61 AUDIO
    TITLE "0:"
    INDEX 01 01:21:27
